<?xml version="1.0" standalone="no"?>
<!DOCTYPE svg PUBLIC "-//W3C//DTD SVG 20010904//EN"
 "http://www.w3.org/TR/2001/REC-SVG-20010904/DTD/svg10.dtd">
<svg version="1.0" xmlns="http://www.w3.org/2000/svg"
 width="83.000000pt" height="83.000000pt" viewBox="0 0 83.000000 83.000000"
 preserveAspectRatio="xMidYMid meet">
<metadata>
Created by potrace 1.11, written by Peter Selinger 2001-2013
</metadata>
<g transform="translate(0.000000,83.000000) scale(0.100000,-0.100000)"
fill="#000000" stroke="none">
<path d="M0 420 l0 -350 30 0 c19 0 30 5 30 14 0 7 8 16 18 18 31 9 37 12 55
32 10 12 16 14 12 6 -4 -8 1 -6 10 5 9 11 19 19 23 17 11 -6 20 33 10 50 -6
12 -5 18 2 18 8 0 8 6 0 20 -12 22 -1 27 17 9 6 -6 9 -18 6 -27 -5 -11 -2 -13
8 -7 11 6 11 5 2 -5 -6 -7 -9 -19 -6 -27 4 -10 8 -11 13 -3 4 6 16 12 28 13
11 0 19 4 16 8 -2 4 10 12 26 18 17 5 30 15 30 21 0 6 4 9 9 6 5 -3 14 1 21 9
7 8 16 12 21 9 5 -3 8 0 7 8 -3 13 -55 52 -71 53 -5 0 -14 8 -21 17 -7 10 -16
15 -19 11 -4 -3 -7 -1 -7 5 0 7 -3 11 -7 11 -5 -1 -11 0 -15 1 -5 1 -18 3 -30
4 -16 1 -23 8 -24 23 -1 17 4 21 25 19 16 -2 27 -10 30 -21 2 -14 5 -15 12 -4
7 11 9 11 9 1 0 -7 4 -10 10 -7 5 3 10 2 10 -2 0 -5 22 -20 50 -34 27 -13 50
-29 50 -36 0 -7 6 -10 14 -7 8 3 17 1 21 -5 8 -14 25 -14 25 0 0 5 -5 7 -11 3
-7 -4 -10 -1 -7 7 3 8 11 13 17 11 6 -1 11 3 11 10 0 6 3 8 6 5 4 -4 15 3 25
15 11 11 19 16 19 10 0 -7 5 -12 11 -12 6 0 8 7 5 16 -3 8 -2 12 4 9 6 -3 10
-1 10 6 0 8 4 8 15 -1 13 -11 14 -10 9 5 -5 13 -4 16 4 11 7 -4 12 -2 12 4 0
6 5 8 10 5 6 -3 10 -1 10 4 0 16 24 9 31 -9 4 -8 2 -21 -4 -28 -7 -9 -5 -11 9
-5 17 6 18 5 5 -11 -11 -13 -12 -19 -3 -25 6 -4 7 -12 3 -20 -6 -10 -10 -9
-15 4 -3 9 -11 13 -18 9 -10 -5 -10 -4 -2 5 10 11 8 51 -2 51 -3 0 -22 -11
-44 -25 -22 -14 -46 -25 -54 -25 -8 0 -17 -7 -20 -16 -4 -9 -9 -14 -13 -11 -3
4 -12 -1 -18 -10 -10 -13 -10 -20 1 -31 8 -7 19 -10 25 -6 8 4 9 3 5 -4 -4 -7
-2 -12 5 -12 6 0 18 -8 26 -17 9 -11 11 -12 7 -3 -5 10 -1 9 14 -3 12 -11 26
-16 33 -11 8 4 10 3 5 -4 -4 -7 -1 -12 6 -13 7 -1 22 -2 33 -3 11 0 19 -7 18
-13 -2 -7 2 -13 8 -13 5 0 7 -5 4 -10 -4 -6 -3 -9 2 -8 12 3 76 -32 91 -51 8
-9 11 -10 7 -4 -4 9 -1 11 9 7 9 -3 16 -11 16 -18 0 -6 14 -13 30 -14 l30 -2
0 350 0 350 -25 0 c-13 0 -28 -7 -33 -15 -4 -9 -18 -17 -29 -18 -12 0 -19 -5
-17 -9 3 -4 -1 -8 -9 -8 -8 0 -22 -9 -31 -19 -10 -11 -29 -22 -42 -25 -15 -4
-22 -11 -18 -18 4 -7 3 -8 -4 -4 -13 8 -72 -23 -72 -38 0 -5 -3 -6 -6 -3 -4 4
-21 -4 -38 -16 -63 -45 -94 -58 -108 -44 -8 6 -20 13 -28 15 -8 2 -24 12 -35
21 -11 10 -26 16 -33 14 -6 -3 -12 3 -12 12 0 9 -4 13 -10 10 -6 -3 -10 -1
-10 5 0 6 -4 9 -9 5 -5 -3 -16 2 -24 10 -9 8 -21 15 -27 15 -6 0 -13 6 -16 14
-3 8 -12 12 -20 9 -7 -3 -17 2 -20 11 -3 9 -10 13 -15 10 -5 -3 -9 0 -9 5 0 6
-7 11 -15 11 -8 0 -15 5 -15 11 0 5 -4 8 -9 5 -4 -3 -16 3 -26 14 -10 11 -29
20 -42 20 l-23 0 0 -350z m226 -64 c2 -13 -2 -16 -14 -11 -13 5 -14 3 -5 -6 6
-6 9 -18 6 -27 -5 -11 -3 -13 8 -7 11 7 12 6 2 -6 -10 -12 -10 -18 -1 -27 9
-9 9 -12 1 -12 -16 0 -46 44 -33 48 6 2 7 8 4 13 -3 6 -7 21 -9 34 -2 20 2 24
18 21 11 -1 21 -11 23 -20z m406 -50 c14 -10 15 -15 5 -25 -9 -9 -9 -14 3 -21
13 -9 13 -10 0 -11 -8 -1 -19 -1 -25 0 -5 1 0 -7 13 -18 21 -19 18 -37 -5 -23
-17 11 -26 52 -11 52 10 0 9 3 -2 10 -13 8 -12 10 3 10 17 0 17 1 3 16 -27 26
-15 34 16 10z"/>
</g>
</svg>
